<?xml version="1.0" standalone="no"?>
<!DOCTYPE svg PUBLIC "-//W3C//DTD SVG 20010904//EN"
 "http://www.w3.org/TR/2001/REC-SVG-20010904/DTD/svg10.dtd">
<svg version="1.0" xmlns="http://www.w3.org/2000/svg"
 width="200.000000pt" height="200.000000pt" viewBox="0 0 200.000000 200.000000"
 preserveAspectRatio="xMidYMid meet">
<metadata>
Created by potrace 1.11, written by Peter Selinger 2001-2013
</metadata>
<g transform="translate(0.000000,200.000000) scale(0.100000,-0.100000)"
fill="#000000" stroke="none">
<path d="M1335 1986 c-11 -6 -21 -11 -22 -12 -6 -1 32 -74 39 -74 4 0 8 -8 8
-17 0 -14 -3 -13 -23 5 -48 45 -74 17 -42 -44 19 -37 19 -64 0 -64 -8 0 -15 3
-16 8 0 4 -2 17 -3 30 -2 20 -105 132 -121 132 -4 0 3 -14 15 -30 29 -41 39
-110 16 -110 -9 0 -16 -4 -16 -10 0 -23 -40 -8 -69 26 -20 22 -38 34 -47 30
-12 -5 -10 -13 13 -42 31 -41 73 -126 66 -134 -2 -3 -9 3 -14 13 -6 10 -22 31
-37 46 -15 16 -42 45 -60 65 -45 48 -121 110 -128 103 -3 -3 11 -20 31 -39 41
-37 135 -169 135 -191 0 -7 5 -18 11 -24 6 -6 9 -17 6 -25 -3 -9 -7 -7 -13 7
-4 11 -10 22 -14 25 -3 3 -21 25 -40 50 -50 65 -130 141 -141 134 -5 -3 -7
-10 -3 -15 3 -5 10 -7 15 -4 5 4 9 -3 9 -13 0 -11 7 -22 15 -26 8 -3 15 -12
15 -20 0 -9 9 -20 20 -26 11 -6 20 -16 20 -22 0 -6 6 -19 14 -27 8 -9 24 -38
35 -64 19 -45 19 -48 3 -45 -22 4 -65 -39 -55 -55 5 -9 3 -9 -9 0 -12 11 -17
9 -26 -12 -6 -14 -9 -33 -5 -42 5 -14 1 -13 -16 5 l-22 22 33 31 c31 28 32 31
16 43 -10 7 -18 18 -18 25 0 6 -7 11 -15 11 -8 0 -15 9 -15 19 0 10 -7 22 -16
25 -9 4 -15 9 -12 12 8 7 -95 113 -104 107 -5 -2 -8 -13 -8 -23 0 -13 5 -17
15 -14 8 4 15 1 15 -5 0 -6 18 -34 39 -61 40 -51 58 -87 47 -97 -8 -8 -44 25
-64 59 -9 16 -22 28 -29 28 -7 0 -13 5 -13 12 0 19 -70 77 -86 71 -22 -8 -17
-30 9 -37 12 -3 35 -24 50 -46 16 -22 33 -40 38 -40 6 0 8 -4 5 -8 -3 -5 6
-21 20 -37 13 -15 24 -32 24 -37 0 -4 11 -31 24 -58 17 -35 21 -52 13 -57 -7
-3 -9 -3 -6 1 4 4 -6 21 -22 38 -15 17 -26 35 -23 40 3 4 1 8 -5 8 -6 0 -21
18 -33 40 -13 22 -26 40 -29 40 -3 0 -14 -9 -23 -19 -17 -19 -14 -47 4 -36 5
3 20 -11 33 -32 31 -51 38 -71 26 -79 -6 -4 -6 -11 2 -21 11 -13 14 -13 26 3
12 17 13 16 13 -5 0 -12 -4 -19 -10 -16 -5 3 -10 -1 -10 -9 0 -8 -4 -18 -10
-21 -5 -3 -7 0 -4 8 3 8 -2 20 -11 27 -12 10 -15 10 -15 -4 0 -9 -5 -16 -10
-16 -6 0 -8 12 -5 28 5 26 5 27 -5 3 -7 -17 -7 -28 0 -35 13 -13 13 -29 0 -21
-5 3 -10 1 -10 -5 0 -6 -12 -4 -31 5 -17 9 -36 14 -42 11 -7 -2 -4 -5 6 -5 9
-1 17 -8 17 -16 0 -8 5 -15 10 -15 6 0 10 -5 10 -11 0 -7 -12 -8 -32 -4 -28 5
-31 4 -17 -7 18 -15 32 -48 20 -48 -5 0 -11 10 -14 21 -4 14 -11 20 -21 16
-13 -5 -13 -2 -5 20 7 19 6 28 -2 34 -7 4 -8 12 -4 20 5 8 -1 5 -13 -5 -17
-15 -21 -27 -18 -55 3 -20 5 -40 5 -44 1 -5 7 -5 14 -1 10 6 10 4 0 -7 -15
-16 -17 -39 -3 -39 5 0 7 8 4 18 -5 15 -4 15 10 -2 19 -24 11 -39 -14 -26 -26
14 -35 13 -21 -3 8 -10 7 -17 -1 -25 -15 -15 -28 -15 -28 -1 0 5 5 7 12 3 8
-5 9 0 6 14 -4 12 -2 25 3 28 13 8 11 21 -7 38 -8 9 -11 16 -5 16 19 0 12 15
-24 56 -19 21 -35 43 -35 47 0 4 -18 33 -41 63 -28 39 -45 54 -56 50 -13 -5
-14 -4 -4 8 15 18 -5 34 -22 17 -13 -13 11 -64 28 -57 6 2 11 -5 11 -18 -1
-15 6 -22 22 -24 19 -3 21 -6 11 -18 -9 -11 -9 -14 1 -14 7 0 10 -7 6 -16 -8
-22 4 -40 15 -23 7 11 9 11 9 -2 0 -9 7 -22 16 -30 8 -7 13 -21 11 -31 -3 -10
-2 -18 3 -18 9 0 20 -24 26 -57 3 -15 0 -23 -9 -23 -21 0 -28 12 -15 27 8 10
8 12 -4 8 -14 -6 -18 1 -32 45 -6 22 -41 68 -48 64 -4 -3 -8 6 -8 21 0 14 -7
28 -15 31 -8 4 -15 12 -15 19 0 6 -8 19 -19 29 -17 16 -19 15 -35 -9 -17 -26
-17 -27 4 -32 11 -3 33 -26 47 -52 15 -25 32 -49 38 -53 5 -4 6 -8 1 -8 -5 0
-1 -9 10 -21 10 -12 18 -22 16 -23 -2 0 2 -14 9 -31 7 -16 11 -36 10 -42 -1
-7 3 -13 9 -13 6 0 9 -4 5 -9 -3 -5 -1 -12 5 -16 5 -3 10 -10 10 -15 0 -5 -10
1 -23 13 -12 12 -22 31 -22 41 0 10 -7 21 -15 23 -11 4 -12 2 -2 -5 16 -11 5
-42 -14 -42 -8 0 -14 5 -14 11 0 5 -4 8 -9 5 -12 -8 -1 -49 16 -59 7 -5 11
-12 8 -18 -3 -5 -15 0 -27 10 -12 12 -17 25 -13 32 5 8 4 10 -3 5 -7 -4 -12
-1 -12 6 0 7 -8 22 -17 33 -13 16 -15 17 -10 3 6 -17 -2 -22 -30 -19 -17 2
-17 -38 -1 -44 7 -3 14 -19 15 -35 3 -42 -8 -31 -32 29 -12 33 -25 51 -36 51
-21 0 -34 -47 -18 -66 6 -8 8 -14 5 -14 -4 0 2 -10 14 -22 11 -12 20 -33 20
-47 0 -15 -4 -21 -8 -15 -11 16 -40 13 -58 -7 -14 -16 -14 -20 2 -43 9 -15 14
-29 11 -32 -8 -8 -47 47 -47 67 0 22 -18 35 -32 21 -16 -16 -15 -101 2 -112 8
-5 11 -12 8 -16 -11 -11 -58 50 -58 76 0 5 -21 44 -48 87 l-47 77 -3 -46 c-2
-32 3 -57 18 -83 26 -47 71 -165 63 -165 -3 0 2 -9 12 -20 10 -11 13 -20 7
-20 -15 0 -53 62 -76 123 -10 26 -20 47 -22 47 -11 0 -1 -167 11 -186 23 -36
23 -96 0 -118 -20 -19 -20 -19 3 -13 23 5 23 5 5 -21 -16 -24 -18 -55 -21
-279 -2 -139 0 -253 3 -253 4 0 39 16 78 36 43 22 104 42 152 51 93 17 143 34
193 68 26 18 50 25 84 25 53 0 65 17 18 27 -28 5 -29 7 -13 19 10 7 44 16 76
20 61 7 88 24 40 25 -15 0 -37 4 -47 8 -18 7 -18 8 5 14 13 4 38 7 55 7 17 0
37 6 43 14 14 17 4 25 -33 28 -36 3 -32 15 7 22 38 7 67 43 45 58 -11 8 -11
10 1 15 16 7 31 22 91 91 39 45 49 52 82 52 42 0 88 15 88 29 0 5 -6 9 -12 8
-42 -1 -78 4 -78 12 0 5 8 7 19 4 10 -3 22 0 25 6 4 5 12 8 19 5 7 -2 22 4 32
16 18 20 18 20 -21 21 -21 1 -31 3 -21 6 9 2 17 9 17 14 0 6 5 7 12 3 7 -5 8
-3 3 6 -10 16 49 70 77 70 16 0 19 5 14 25 -4 15 -2 25 4 25 6 0 8 -4 5 -10
-3 -5 1 -10 9 -10 10 0 13 6 10 15 -4 10 0 15 14 15 12 0 22 9 25 21 5 18 2
20 -16 16 -21 -5 -21 -5 2 11 25 17 31 19 94 29 20 3 37 9 37 14 0 4 -17 11
-37 15 l-38 7 31 13 c17 7 43 15 58 17 15 1 25 7 24 12 -2 6 -8 9 -15 7 -6 -1
-14 2 -17 7 -7 11 54 41 84 41 11 0 18 5 15 10 -3 6 -15 10 -26 10 -29 0 -23
19 9 26 15 3 34 8 42 11 8 4 18 7 22 7 13 2 21 16 10 17 -7 1 -16 3 -22 4 -5
1 -13 3 -17 4 -19 3 26 20 69 26 52 7 64 22 23 27 -38 5 -32 21 14 38 41 14
54 30 26 30 -31 0 -13 17 33 32 38 12 47 19 45 35 -2 15 5 23 22 27 14 4 25
14 25 23 0 10 12 29 26 43 83 82 164 171 164 180 0 6 11 15 25 20 14 5 25 16
25 24 0 8 23 35 51 60 28 25 60 57 70 70 19 24 19 25 -1 60 -16 26 -20 43 -14
70 l6 36 -190 0 c-158 0 -192 -3 -202 -15 -12 -14 -15 -14 -36 0 -13 8 -38 15
-55 15 -30 0 -31 -2 -25 -30 3 -19 1 -30 -6 -30 -6 0 -20 -8 -30 -17 -17 -15
-21 -15 -29 -3 -5 8 -7 25 -4 38 4 17 1 22 -14 22 -11 0 -21 4 -23 9 -1 5 -12
3 -23 -3z m-457 -461 c-3 -3 -9 2 -12 12 -6 14 -5 15 5 6 7 -7 10 -15 7 -18z
m73 -345 c10 -6 19 -15 19 -21 0 -6 -9 -5 -22 2 -13 7 -36 16 -53 20 l-30 7
33 1 c18 1 42 -4 53 -9z m-565 -135 c1 -8 -2 -13 -7 -9 -5 3 -9 12 -9 21 0 19
13 9 16 -12z m442 2 c41 -19 23 -25 -27 -9 -27 10 -44 20 -38 24 11 7 28 3 65
-15z m232 1 c0 -18 -2 -20 -9 -8 -6 8 -7 18 -5 22 9 14 14 9 14 -14z m-120
-125 c0 -5 -5 -15 -10 -23 -8 -12 -10 -11 -10 8 0 12 5 22 10 22 6 0 10 -3 10
-7z m-590 -448 c0 -8 -4 -15 -8 -15 -5 0 -8 -10 -8 -22 1 -19 -5 -24 -31 -26
-27 -3 -33 0 -33 16 0 13 9 22 25 26 14 4 25 13 25 21 0 8 7 15 15 15 8 0 15
-7 15 -15z m-106 -71 c20 -26 33 -51 30 -56 -4 -6 6 -20 21 -32 22 -18 27 -28
22 -49 -9 -34 -33 -57 -60 -56 -12 0 -44 13 -72 28 l-50 28 -3 78 c-2 43 -1
84 2 92 3 7 20 13 40 13 30 0 40 -7 70 -46z m96 -35 c13 -24 8 -34 -15 -26
-16 7 -21 47 -5 47 5 0 14 -9 20 -21z"/>
<path d="M407 1983 c-4 -3 -7 -11 -7 -17 0 -6 5 -5 12 2 6 6 9 14 7 17 -3 3
-9 2 -12 -2z"/>
<path d="M160 1970 c0 -5 5 -10 11 -10 5 0 7 5 4 10 -3 6 -8 10 -11 10 -2 0
-4 -4 -4 -10z"/>
<path d="M300 1970 c8 -5 20 -10 25 -10 6 0 3 5 -5 10 -8 5 -19 10 -25 10 -5
0 -3 -5 5 -10z"/>
<path d="M1210 1971 c0 -5 7 -12 16 -15 22 -9 24 -8 18 9 -7 16 -34 21 -34 6z"/>
<path d="M195 1960 c-3 -5 1 -10 10 -10 9 0 13 5 10 10 -3 6 -8 10 -10 10 -2
0 -7 -4 -10 -10z"/>
<path d="M340 1960 c0 -5 9 -14 20 -20 22 -12 27 -1 8 18 -14 14 -28 16 -28 2z"/>
<path d="M815 1960 c3 -5 8 -10 11 -10 2 0 4 5 4 10 0 6 -5 10 -11 10 -5 0 -7
-4 -4 -10z"/>
<path d="M710 1950 c0 -6 7 -10 15 -10 8 0 15 2 15 4 0 2 -7 6 -15 10 -8 3
-15 1 -15 -4z"/>
<path d="M407 1909 c6 -22 19 -25 26 -5 3 8 -2 16 -12 19 -14 3 -17 0 -14 -14z"/>
<path d="M528 1923 c6 -2 12 -11 12 -19 0 -16 16 -19 25 -5 5 10 -25 32 -42
30 -4 0 -2 -3 5 -6z"/>
<path d="M640 1920 c0 -5 5 -10 10 -10 6 0 10 5 10 10 0 6 -4 10 -10 10 -5 0
-10 -4 -10 -10z"/>
<path d="M305 1911 c-3 -5 -1 -12 5 -16 5 -3 10 1 10 9 0 18 -6 21 -15 7z"/>
<path d="M775 1910 c3 -5 11 -10 16 -10 6 0 7 5 4 10 -3 6 -11 10 -16 10 -6 0
-7 -4 -4 -10z"/>
<path d="M450 1902 c0 -10 21 -32 32 -32 16 0 8 19 -12 30 -11 6 -20 7 -20 2z"/>
<path d="M675 1900 c-3 -5 -1 -10 4 -10 6 0 11 5 11 10 0 6 -2 10 -4 10 -3 0
-8 -4 -11 -10z"/>
<path d="M1090 1906 c0 -8 55 -66 62 -66 17 0 7 27 -17 48 -23 20 -45 29 -45
18z"/>
<path d="M330 1890 c0 -5 5 -10 10 -10 6 0 10 5 10 10 0 6 -4 10 -10 10 -5 0
-10 -4 -10 -10z"/>
<path d="M580 1885 c0 -8 5 -15 10 -15 6 0 10 7 10 15 0 8 -4 15 -10 15 -5 0
-10 -7 -10 -15z"/>
<path d="M810 1880 c0 -5 9 -14 20 -20 22 -12 27 -1 8 18 -14 14 -28 16 -28 2z"/>
<path d="M392 1858 c3 -7 14 -14 26 -16 13 -2 22 -11 22 -20 0 -14 2 -15 10
-2 6 10 2 19 -18 32 -32 21 -45 23 -40 6z"/>
<path d="M502 1858 c6 -18 28 -21 28 -4 0 9 -7 16 -16 16 -9 0 -14 -5 -12 -12z"/>
<path d="M737 1863 c-9 -9 12 -33 29 -33 8 0 14 -7 14 -15 0 -8 5 -15 10 -15
14 0 12 19 -3 33 -28 27 -44 36 -50 30z"/>
<path d="M41 1851 c-9 -6 -10 -11 -2 -15 6 -4 16 -4 23 0 7 5 8 3 3 -6 -6 -9
-2 -10 15 -5 15 5 20 4 16 -3 -10 -16 33 -37 47 -23 8 8 4 11 -13 11 -13 0
-20 3 -17 6 7 7 -35 44 -50 44 -4 0 -14 -4 -22 -9z"/>
<path d="M635 1844 c-18 -14 -18 -14 1 -14 10 0 28 -7 38 -15 11 -8 23 -15 28
-15 16 0 7 17 -20 37 -24 18 -30 19 -47 7z"/>
<path d="M546 1841 c-3 -5 14 -25 38 -45 31 -25 47 -33 52 -25 8 13 -24 41
-37 33 -5 -3 -9 2 -9 11 0 11 -5 15 -14 12 -10 -4 -13 -1 -9 9 6 15 -12 20
-21 5z"/>
<path d="M466 1823 c-10 -11 -7 -23 7 -23 7 0 19 -9 27 -20 16 -23 30 -26 29
-7 0 15 -54 58 -63 50z"/>
<path d="M8 1808 c10 -12 10 -17 1 -20 -7 -2 -9 -10 -5 -17 6 -9 11 -9 22 0
20 16 18 26 -8 40 -20 11 -22 10 -10 -3z"/>
<path d="M810 1796 c0 -7 7 -19 15 -26 8 -7 15 -21 15 -31 0 -11 5 -19 11 -19
17 0 50 -40 79 -93 13 -26 30 -47 38 -47 27 0 24 32 -7 75 -17 24 -31 48 -31
54 0 6 -10 16 -22 22 -13 7 -36 27 -52 46 -30 35 -46 42 -46 19z"/>
<path d="M157 1794 c-4 -4 -7 -14 -7 -23 0 -11 3 -12 11 -4 6 6 10 16 7 23 -2
6 -7 8 -11 4z"/>
<path d="M43 1765 c-9 -25 2 -27 22 -5 17 18 17 20 1 20 -9 0 -19 -7 -23 -15z"/>
<path d="M180 1768 c0 -11 10 -20 25 -24 20 -5 23 -9 14 -20 -9 -11 -8 -14 5
-14 22 0 33 30 15 41 -8 5 -18 7 -24 5 -5 -1 -15 4 -22 13 -11 14 -12 14 -13
-1z"/>
<path d="M561 1736 c-9 -10 -8 -16 4 -26 8 -7 15 -10 15 -6 0 3 9 -3 20 -14
11 -11 20 -25 20 -31 0 -6 7 -9 14 -6 9 4 13 1 11 -6 -3 -7 2 -20 9 -30 12
-16 17 -16 35 -5 26 16 27 28 2 28 -11 0 -22 9 -26 19 -3 10 -21 29 -40 42
-19 13 -35 30 -35 37 0 16 -15 15 -29 -2z"/>
<path d="M256 1723 c-11 -11 -6 -23 9 -23 8 0 15 4 15 9 0 13 -16 22 -24 14z"/>
<path d="M10 1714 c0 -7 27 -34 34 -34 3 0 6 7 6 15 0 9 6 12 17 8 11 -4 14
-3 9 5 -7 12 -66 17 -66 6z"/>
<path d="M146 1712 c-7 -11 52 -62 71 -62 24 0 13 25 -20 45 -45 27 -44 27
-51 17z"/>
<path d="M61 1677 c-6 -8 -8 -17 -4 -20 7 -8 33 11 33 24 0 13 -16 11 -29 -4z"/>
<path d="M306 1681 c-3 -5 8 -24 24 -42 16 -19 30 -40 30 -46 0 -7 4 -13 9
-13 5 0 8 15 7 33 -2 18 -7 31 -14 30 -7 -2 -11 3 -9 10 1 7 -6 11 -17 9 -10
-2 -15 1 -12 7 4 5 2 12 -3 15 -5 4 -12 2 -15 -3z"/>
<path d="M97 1663 c-4 -3 -7 -13 -7 -21 0 -12 3 -12 15 -2 8 7 15 16 15 21 0
11 -14 12 -23 2z"/>
<path d="M0 1649 c0 -5 5 -7 10 -4 5 3 10 8 10 11 0 2 -4 4 -10 4 -5 0 -10 -5
-10 -11z"/>
<path d="M122 1638 c-18 -18 -15 -25 14 -32 14 -4 42 -25 62 -46 20 -22 45
-40 57 -41 11 0 14 -3 8 -6 -7 -2 -13 -12 -13 -20 0 -9 6 -13 14 -10 9 4 17
-2 21 -14 4 -10 12 -19 20 -19 33 0 17 30 -49 93 -39 38 -80 77 -91 88 -24 22
-27 23 -43 7z"/>
<path d="M228 1643 c-21 -5 -24 -23 -4 -23 7 0 17 -10 21 -22 7 -22 8 -21 14
7 4 17 6 33 4 38 -4 7 -7 7 -35 0z"/>
<path d="M42 1608 c-17 -17 -15 -28 5 -28 10 0 37 -19 60 -42 32 -31 46 -39
54 -31 15 15 3 34 -16 26 -10 -3 -15 2 -15 17 0 13 -8 24 -20 27 -11 3 -20 10
-20 15 0 6 -7 8 -14 5 -10 -4 -13 -1 -9 9 6 17 -8 19 -25 2z"/>
<path d="M390 1585 c-10 -12 -10 -19 -2 -27 9 -9 15 -7 26 7 23 32 0 49 -24
20z"/>
<path d="M270 1583 c0 -13 29 -38 35 -31 3 3 -4 13 -15 23 -11 10 -20 13 -20
8z"/>
<path d="M0 1554 c0 -8 5 -12 10 -9 6 4 8 11 5 16 -9 14 -15 11 -15 -7z"/>
<path d="M20 1535 c-18 -21 -3 -32 16 -13 10 9 12 18 6 22 -5 3 -15 -1 -22 -9z"/>
<path d="M360 1530 c0 -5 5 -10 10 -10 6 0 10 5 10 10 0 6 -4 10 -10 10 -5 0
-10 -4 -10 -10z"/>
<path d="M440 1528 c0 -4 4 -8 9 -8 5 0 12 -10 16 -22 l7 -23 8 25 c6 20 8 14
9 -27 1 -40 5 -53 16 -53 8 0 21 -13 29 -29 21 -41 41 -45 42 -10 1 16 -3 29
-7 29 -5 0 -9 7 -9 16 0 11 -6 14 -22 8 -21 -6 -22 -5 -8 11 11 14 12 19 3 22
-7 3 -13 11 -13 19 0 8 -5 14 -11 14 -6 0 -9 7 -5 15 3 8 0 15 -7 16 -7 0 -22
2 -34 3 -13 2 -23 -1 -23 -6z"/>
<path d="M40 1502 c0 -4 14 -20 30 -35 29 -27 30 -28 30 -7 0 12 -6 28 -14 36
-15 15 -46 19 -46 6z"/>
<path d="M170 1493 c0 -10 12 -29 25 -42 14 -13 33 -36 42 -52 18 -31 36 -33
41 -6 2 10 -3 17 -13 17 -9 0 -14 4 -11 9 5 8 -20 46 -51 79 -17 17 -33 15
-33 -5z"/>
<path d="M12 1420 c-16 -26 -16 -28 11 -32 14 -2 22 -10 22 -22 0 -11 6 -21
13 -24 6 -2 12 1 12 7 0 6 4 11 10 11 5 0 7 -7 4 -15 -4 -8 1 -17 10 -21 9 -3
16 -12 16 -20 0 -8 5 -14 10 -14 6 0 10 -5 10 -10 0 -6 5 -16 10 -23 6 -7 17
-21 24 -31 14 -20 36 -14 36 10 0 21 -41 74 -57 74 -7 0 -13 8 -13 18 0 14
-88 112 -101 112 -2 0 -10 -9 -17 -20z"/>
<path d="M190 1370 c0 -5 5 -10 11 -10 5 0 7 5 4 10 -3 6 -8 10 -11 10 -2 0
-4 -4 -4 -10z"/>
<path d="M2 1331 c3 -37 24 -53 34 -26 4 10 -2 25 -15 38 l-22 22 3 -34z"/>
<path d="M294 1346 c-7 -19 37 -84 54 -79 7 3 10 -1 6 -11 -9 -25 26 -94 51
-98 21 -4 22 -3 13 31 -5 20 -10 44 -11 54 -1 9 -7 17 -14 17 -7 0 -13 9 -13
20 0 19 -10 24 -39 20 -9 -1 -12 4 -7 16 6 17 -9 44 -26 44 -5 0 -11 -6 -14
-14z"/>
<path d="M205 1330 c-7 -11 16 -50 29 -50 4 0 3 -7 -4 -15 -16 -19 -10 -25 26
-28 38 -3 43 24 10 60 -14 15 -26 31 -26 35 0 11 -28 10 -35 -2z"/>
<path d="M40 1250 c-9 -17 -7 -22 16 -30 17 -7 24 -15 20 -25 -3 -9 8 -28 27
-47 32 -32 87 -132 87 -158 0 -9 6 -8 20 5 11 10 20 26 20 35 0 9 -9 26 -20
38 -11 12 -20 28 -20 36 0 8 -5 18 -10 21 -6 4 -16 21 -24 38 -7 18 -25 46
-40 62 -14 17 -26 33 -26 38 0 16 -40 6 -50 -13z"/>
<path d="M0 1192 c0 -51 3 -62 23 -75 14 -9 27 -33 35 -65 8 -27 19 -57 25
-66 11 -15 14 -15 35 -1 22 16 31 65 12 65 -5 0 -10 5 -10 10 0 6 -23 44 -50
85 -28 41 -50 79 -50 84 0 5 -4 13 -10 16 -6 4 -10 -16 -10 -53z"/>
<path d="M1720 1240 c0 -5 5 -10 10 -10 6 0 10 5 10 10 0 6 -4 10 -10 10 -5 0
-10 -4 -10 -10z"/>
<path d="M1945 1230 c-3 -5 -1 -10 4 -10 6 0 11 5 11 10 0 6 -2 10 -4 10 -3 0
-8 -4 -11 -10z"/>
<path d="M291 1196 c-13 -14 -19 -29 -15 -39 3 -10 8 -17 10 -17 10 0 44 42
44 54 0 25 -16 26 -39 2z"/>
<path d="M198 1180 c-13 -15 -14 -22 -4 -35 10 -14 14 -14 35 9 23 24 22 47
-2 45 -7 0 -20 -9 -29 -19z"/>
<path d="M1620 1190 c0 -5 5 -10 10 -10 6 0 10 5 10 10 0 6 -4 10 -10 10 -5 0
-10 -4 -10 -10z"/>
<path d="M1676 1177 c3 -10 9 -15 12 -12 3 3 0 11 -7 18 -10 9 -11 8 -5 -6z"/>
<path d="M1765 1180 c-3 -5 -1 -10 4 -10 6 0 11 5 11 10 0 6 -2 10 -4 10 -3 0
-8 -4 -11 -10z"/>
<path d="M1854 1167 c3 -10 6 -21 6 -24 0 -3 7 0 15 7 8 7 15 18 15 24 0 6 -5
4 -10 -4 -9 -13 -11 -13 -21 0 -9 13 -10 12 -5 -3z"/>
<path d="M1910 1159 c0 -5 5 -7 10 -4 6 3 10 8 10 11 0 2 -4 4 -10 4 -5 0 -10
-5 -10 -11z"/>
<path d="M1976 1154 c-4 -9 -4 -19 -1 -22 2 -3 7 3 11 12 4 9 4 19 1 22 -2 3
-7 -3 -11 -12z"/>
<path d="M1360 1122 c0 -10 57 -9 66 1 4 4 -9 7 -29 7 -20 0 -37 -4 -37 -8z"/>
<path d="M1527 1121 c4 -3 10 -10 14 -14 3 -4 11 -2 17 5 8 10 5 13 -15 14
-13 1 -21 -1 -16 -5z"/>
<path d="M1625 1120 c-3 -5 -1 -10 4 -10 6 0 11 5 11 10 0 6 -2 10 -4 10 -3 0
-8 -4 -11 -10z"/>
<path d="M1680 1109 c0 -5 5 -7 10 -4 6 3 10 8 10 11 0 2 -4 4 -10 4 -5 0 -10
-5 -10 -11z"/>
<path d="M1767 1114 c-8 -8 1 -24 14 -24 5 0 9 7 9 15 0 15 -12 20 -23 9z"/>
<path d="M1810 1100 c-13 -8 -13 -10 2 -10 9 0 20 5 23 10 8 13 -5 13 -25 0z"/>
<path d="M1857 1104 c-4 -4 -7 -11 -7 -15 0 -10 24 -5 28 6 4 12 -12 18 -21 9z"/>
<path d="M1904 1089 c-4 -8 1 -9 16 -4 15 5 20 4 16 -4 -4 -6 -2 -11 3 -11 6
0 11 7 11 15 0 17 -35 20 -46 4z"/>
<path d="M1967 1076 c-4 -10 0 -14 12 -13 11 1 17 7 14 14 -7 17 -20 17 -26
-1z"/>
<path d="M1335 1060 c-18 -8 -17 -9 8 -9 15 -1 27 4 27 9 0 12 -8 12 -35 0z"/>
<path d="M1390 1054 c0 -14 3 -14 15 -4 8 7 15 14 15 16 0 2 -7 4 -15 4 -8 0
-15 -7 -15 -16z"/>
<path d="M1430 1060 c0 -13 20 -13 40 0 12 8 9 10 -12 10 -16 0 -28 -4 -28
-10z"/>
<path d="M1489 1053 c-13 -15 -12 -15 9 -4 23 12 28 21 13 21 -5 0 -15 -7 -22
-17z"/>
<path d="M1546 1063 c-3 -3 -6 -11 -6 -17 0 -6 5 -4 10 4 6 9 13 11 18 5 10
-14 42 -18 42 -5 0 5 -3 10 -7 11 -5 0 -17 2 -29 4 -12 3 -24 2 -28 -2z"/>
<path d="M1630 1050 c0 -5 5 -10 10 -10 6 0 10 5 10 10 0 6 -4 10 -10 10 -5 0
-10 -4 -10 -10z"/>
<path d="M1670 1044 c0 -8 5 -12 10 -9 6 4 8 11 5 16 -9 14 -15 11 -15 -7z"/>
<path d="M1726 1034 c-5 -14 -4 -15 9 -4 17 14 19 20 6 20 -5 0 -12 -7 -15
-16z"/>
<path d="M1764 1039 c-3 -6 -4 -12 -2 -14 6 -6 48 6 48 14 0 11 -39 11 -46 0z"/>
<path d="M1820 1026 c0 -24 22 -30 36 -11 19 25 8 33 -12 9 -13 -16 -15 -17
-10 -1 3 9 1 17 -4 17 -6 0 -10 -6 -10 -14z"/>
<path d="M1880 1015 c-8 -9 -8 -15 -2 -15 12 0 26 19 19 26 -2 2 -10 -2 -17
-11z"/>
<path d="M1960 1005 c0 -8 2 -15 4 -15 2 0 11 -3 20 -6 9 -3 16 -1 16 6 0 6
-4 8 -10 5 -5 -3 -10 1 -10 9 0 9 -4 16 -10 16 -5 0 -10 -7 -10 -15z"/>
<path d="M1285 1000 c-3 -5 -1 -10 4 -10 6 0 11 5 11 10 0 6 -2 10 -4 10 -3 0
-8 -4 -11 -10z"/>
<path d="M1314 998 c-3 -4 9 -8 27 -8 18 0 29 3 25 7 -10 10 -46 11 -52 1z"/>
<path d="M1390 994 c0 -8 5 -12 10 -9 6 4 8 11 5 16 -9 14 -15 11 -15 -7z"/>
<path d="M1445 990 c-10 -11 -13 -20 -8 -20 13 0 38 29 31 35 -3 3 -13 -4 -23
-15z"/>
<path d="M1250 990 c0 -5 5 -10 10 -10 6 0 10 5 10 10 0 6 -4 10 -10 10 -5 0
-10 -4 -10 -10z"/>
<path d="M1540 985 c0 -8 2 -15 4 -15 2 0 6 7 10 15 3 8 1 15 -4 15 -6 0 -10
-7 -10 -15z"/>
<path d="M1566 985 c-3 -8 -1 -15 4 -15 6 0 10 7 10 15 0 8 -2 15 -4 15 -2 0
-6 -7 -10 -15z"/>
<path d="M1600 980 c0 -12 8 -12 35 0 18 8 17 9 -7 9 -16 1 -28 -3 -28 -9z"/>
<path d="M1660 975 c-7 -9 -11 -18 -8 -20 3 -3 11 1 18 10 7 9 11 18 8 20 -3
3 -11 -1 -18 -10z"/>
<path d="M1721 958 c-14 -23 -14 -23 8 -4 13 12 21 14 21 7 0 -7 5 -9 11 -5 8
4 7 9 -2 15 -20 12 -23 11 -38 -13z"/>
<path d="M1780 961 c0 -11 31 -24 39 -16 3 3 -1 10 -9 15 -19 12 -30 12 -30 1z"/>
<path d="M1836 954 c-4 -11 -2 -15 8 -11 8 3 17 1 19 -6 3 -7 4 -2 4 11 -1 25
-22 30 -31 6z"/>
<path d="M1886 945 c-3 -8 -1 -15 4 -15 13 0 22 18 11 24 -5 3 -11 -1 -15 -9z"/>
<path d="M1344 935 c-12 -9 -14 -14 -6 -15 7 0 20 7 28 15 20 19 4 20 -22 0z"/>
<path d="M1915 939 c-10 -15 -5 -17 41 -22 30 -4 41 -1 41 9 0 17 -9 18 -25 2
-9 -9 -12 -9 -12 0 0 6 -7 9 -17 5 -11 -4 -14 -3 -9 5 4 7 3 12 -3 12 -5 0
-13 -5 -16 -11z"/>
<path d="M1207 923 c3 -8 10 -10 17 -5 6 5 30 7 54 6 23 -2 42 1 42 6 0 5 -27
9 -59 8 -44 -1 -58 -5 -54 -15z"/>
<path d="M1406 921 c-16 -18 -16 -18 8 -18 14 0 33 9 43 21 18 21 18 21 -3 4
-25 -22 -41 -24 -24 -3 18 22 -4 18 -24 -4z"/>
<path d="M1490 920 c-23 -7 -23 -8 -3 -9 12 -1 25 4 28 9 3 6 5 10 3 9 -2 -1
-14 -5 -28 -9z"/>
<path d="M1526 914 c-4 -10 -1 -14 6 -12 15 5 23 28 10 28 -5 0 -13 -7 -16
-16z"/>
<path d="M1600 905 c-20 -24 -6 -28 15 -5 10 11 13 20 8 20 -6 0 -16 -7 -23
-15z"/>
<path d="M1680 899 c-13 -9 -13 -10 2 -6 9 3 19 1 22 -6 2 -7 5 -4 5 6 1 20
-7 21 -29 6z"/>
<path d="M1734 889 c-7 -11 27 -11 45 0 9 6 5 9 -13 9 -15 0 -29 -4 -32 -9z"/>
<path d="M1800 879 c0 -5 4 -9 9 -9 5 0 16 -3 25 -6 10 -4 16 -1 16 7 0 8 -11
15 -25 15 -14 1 -25 -2 -25 -7z"/>
<path d="M1112 860 c-7 -11 -9 -20 -4 -20 4 0 13 9 20 20 7 11 9 20 4 20 -4 0
-13 -9 -20 -20z"/>
<path d="M1145 860 c-27 -30 -12 -34 15 -5 13 14 19 25 13 25 -5 0 -18 -9 -28
-20z"/>
<path d="M1237 865 c5 -16 41 -16 46 -1 4 9 -4 13 -23 12 -15 -1 -26 -6 -23
-11z"/>
<path d="M1306 871 c-4 -7 -5 -15 -2 -18 9 -9 19 4 14 18 -4 11 -6 11 -12 0z"/>
<path d="M1337 866 c-5 -11 -1 -16 12 -16 11 0 21 -5 23 -11 3 -8 9 -7 19 3 8
8 20 13 27 10 6 -2 12 1 12 6 0 5 -17 9 -37 7 -21 -1 -41 2 -44 7 -3 5 -9 3
-12 -6z"/>
<path d="M1904 858 c-3 -4 6 -8 20 -8 14 0 26 4 26 8 0 4 -9 8 -21 8 -11 0
-23 -4 -25 -8z"/>
<path d="M1480 845 c0 -8 8 -11 20 -8 30 8 33 21 5 21 -14 0 -25 -6 -25 -13z"/>
<path d="M1982 840 c-8 -13 -8 -20 -2 -20 6 0 13 7 17 15 9 24 -1 27 -15 5z"/>
<path d="M1597 843 c-4 -3 -7 -11 -7 -17 0 -6 5 -5 12 2 6 6 9 14 7 17 -3 3
-9 2 -12 -2z"/>
<path d="M1626 824 c-3 -9 -1 -12 4 -9 6 3 10 1 10 -6 0 -8 4 -8 15 1 20 17
19 25 -4 27 -11 1 -22 -5 -25 -13z"/>
<path d="M1680 820 c0 -5 9 -9 20 -7 31 5 36 17 7 17 -15 0 -27 -4 -27 -10z"/>
<path d="M1741 814 c0 -11 3 -14 6 -6 3 7 2 16 -1 19 -3 4 -6 -2 -5 -13z"/>
<path d="M1770 805 c0 -8 2 -15 4 -15 2 0 6 7 10 15 3 8 1 15 -4 15 -6 0 -10
-7 -10 -15z"/>
<path d="M1795 800 c-3 -5 -2 -10 4 -10 5 0 13 5 16 10 3 6 2 10 -4 10 -5 0
-13 -4 -16 -10z"/>
<path d="M1860 789 c0 -5 5 -7 10 -4 6 3 10 8 10 11 0 2 -4 4 -10 4 -5 0 -10
-5 -10 -11z"/>
<path d="M1890 790 c0 -5 7 -10 16 -10 8 0 12 -4 9 -10 -10 -17 12 -11 26 7
12 14 12 16 -1 11 -8 -3 -23 -1 -32 4 -12 5 -18 5 -18 -2z"/>
<path d="M1048 743 c6 -2 10 -9 7 -14 -3 -4 10 -8 30 -7 19 1 35 5 35 9 0 4
-11 6 -24 3 -14 -2 -28 0 -31 6 -3 5 -12 10 -18 9 -9 0 -8 -2 1 -6z"/>
<path d="M1745 740 c-3 -5 -1 -10 4 -10 6 0 11 5 11 10 0 6 -2 10 -4 10 -3 0
-8 -4 -11 -10z"/>
<path d="M1135 732 c-3 -3 -5 -8 -5 -12 0 -9 49 0 55 10 5 8 -41 10 -50 2z"/>
<path d="M1200 729 c0 -5 5 -7 10 -4 6 3 10 8 10 11 0 2 -4 4 -10 4 -5 0 -10
-5 -10 -11z"/>
<path d="M1232 725 c-11 -12 -10 -15 3 -15 8 0 15 7 15 15 0 18 -2 18 -18 0z"/>
<path d="M1321 726 c-14 -16 17 -19 38 -2 12 9 13 8 8 -6 -3 -10 -2 -18 4 -18
6 0 9 7 7 17 -4 20 -42 27 -57 9z"/>
<path d="M1840 720 c0 -5 5 -10 10 -10 6 0 10 5 10 10 0 6 -4 10 -10 10 -5 0
-10 -4 -10 -10z"/>
<path d="M1395 710 c-3 -5 -1 -10 4 -10 6 0 11 5 11 10 0 6 -2 10 -4 10 -3 0
-8 -4 -11 -10z"/>
<path d="M1555 690 c-8 -13 9 -20 24 -11 10 6 9 10 -3 14 -8 3 -18 2 -21 -3z"/>
<path d="M1940 689 c0 -5 5 -7 10 -4 6 3 10 8 10 11 0 2 -4 4 -10 4 -5 0 -10
-5 -10 -11z"/>
<path d="M1006 655 c-5 -13 -2 -14 17 -4 12 7 23 10 24 8 1 -2 5 -1 9 4 4 4
-4 7 -18 7 -14 0 -28 -7 -32 -15z"/>
<path d="M1075 660 c3 -5 10 -10 16 -10 5 0 9 5 9 10 0 6 -7 10 -16 10 -8 0
-12 -4 -9 -10z"/>
<path d="M1116 653 c-6 -14 -5 -15 5 -6 7 7 10 15 7 18 -3 3 -9 -2 -12 -12z"/>
<path d="M1170 650 c0 -5 5 -10 10 -10 6 0 10 5 10 10 0 6 -4 10 -10 10 -5 0
-10 -4 -10 -10z"/>
<path d="M1210 656 c0 -2 7 -6 15 -10 8 -3 15 -1 15 4 0 6 -7 10 -15 10 -8 0
-15 -2 -15 -4z"/>
<path d="M1256 643 c-6 -14 -5 -15 5 -6 7 7 10 15 7 18 -3 3 -9 -2 -12 -12z"/>
<path d="M1845 640 c-3 -6 1 -7 9 -4 18 7 21 14 7 14 -6 0 -13 -4 -16 -10z"/>
<path d="M1378 633 c12 -2 22 -9 22 -14 0 -5 5 -9 11 -9 8 0 8 5 -1 15 -7 8
-22 14 -34 14 -20 -2 -20 -2 2 -6z"/>
<path d="M1438 628 c5 -5 16 -8 23 -6 8 3 3 7 -10 11 -17 4 -21 3 -13 -5z"/>
<path d="M1824 563 c10 -11 36 -12 36 -2 0 5 -10 9 -22 9 -12 0 -18 -3 -14 -7z"/>
<path d="M770 525 c0 -16 9 -19 34 -9 25 9 19 24 -9 24 -16 0 -25 -6 -25 -15z"/>
<path d="M855 531 c-7 -12 12 -24 25 -16 11 7 4 25 -10 25 -5 0 -11 -4 -15 -9z"/>
<path d="M920 519 c0 -5 5 -7 10 -4 6 3 10 8 10 11 0 2 -4 4 -10 4 -5 0 -10
-5 -10 -11z"/>
<path d="M960 520 c0 -5 7 -7 15 -4 8 4 15 8 15 10 0 2 -7 4 -15 4 -8 0 -15
-4 -15 -10z"/>
<path d="M1030 505 c7 -9 15 -13 17 -11 7 7 -7 26 -19 26 -6 0 -6 -6 2 -15z"/>
<path d="M780 460 c0 -5 14 -10 31 -10 17 0 28 4 24 10 -3 6 -17 10 -31 10
-13 0 -24 -4 -24 -10z"/>
</g>
</svg>
